<?xml version="1.0" encoding="UTF-8" standalone="no"?>
<!DOCTYPE svg PUBLIC "-//W3C//DTD SVG 1.1//EN"
 "http://www.w3.org/Graphics/SVG/1.1/DTD/svg11.dtd">
<!-- Generated by graphviz version 2.38.0 (20140413.2041)
 -->
<!-- Title: Network Visualization Pages: 1 -->
<svg width="752pt" height="66pt"
 viewBox="0.00 0.00 752.00 66.00" xmlns="http://www.w3.org/2000/svg" xmlns:xlink="http://www.w3.org/1999/xlink">
<g id="graph0" class="graph" transform="scale(1 1) rotate(0) translate(4 62)">
<title>Network Visualization</title>
<polygon fill="white" stroke="none" points="-4,4 -4,-62 748,-62 748,4 -4,4"/>
<!-- fc1 -->
<g id="node1" class="node"><title>fc1</title>
<polygon fill="#fb8072" stroke="black" points="94,-58 -7.10543e-15,-58 -7.10543e-15,-0 94,-0 94,-58"/>
<text text-anchor="middle" x="47" y="-36" font-family="Times,serif" font-size="10.00">fc1</text>
<text text-anchor="middle" x="47" y="-26" font-family="Times,serif" font-size="10.00">FullyConnected</text>
<text text-anchor="middle" x="47" y="-16" font-family="Times,serif" font-size="10.00">num&#45;hidden=128</text>
</g>
<!-- relu1 -->
<g id="node2" class="node"><title>relu1</title>
<polygon fill="#ffffb3" stroke="black" points="224,-58 130,-58 130,-0 224,-0 224,-58"/>
<text text-anchor="middle" x="177" y="-36" font-family="Times,serif" font-size="10.00">relu1</text>
<text text-anchor="middle" x="177" y="-26" font-family="Times,serif" font-size="10.00">Activation</text>
<text text-anchor="middle" x="177" y="-16" font-family="Times,serif" font-size="10.00">act&#45;type=relu</text>
</g>
<!-- relu1&#45;&gt;fc1 -->
<g id="edge1" class="edge"><title>relu1&#45;&gt;fc1</title>
<path fill="none" stroke="black" d="M119.558,-29C111.063,-29 102.388,-29 94.1431,-29"/>
<polygon fill="black" stroke="black" points="129.789,-29 119.789,-33.5001 124.789,-29 119.789,-29.0001 119.789,-29.0001 119.789,-29.0001 124.789,-29 119.789,-24.5001 129.789,-29 129.789,-29"/>
</g>
<!-- fc2 -->
<g id="node3" class="node"><title>fc2</title>
<polygon fill="#fb8072" stroke="black" points="354,-58 260,-58 260,-0 354,-0 354,-58"/>
<text text-anchor="middle" x="307" y="-36" font-family="Times,serif" font-size="10.00">fc2</text>
<text text-anchor="middle" x="307" y="-26" font-family="Times,serif" font-size="10.00">FullyConnected</text>
<text text-anchor="middle" x="307" y="-16" font-family="Times,serif" font-size="10.00">num&#45;hidden=64</text>
</g>
<!-- fc2&#45;&gt;relu1 -->
<g id="edge2" class="edge"><title>fc2&#45;&gt;relu1</title>
<path fill="none" stroke="black" d="M249.558,-29C241.063,-29 232.388,-29 224.143,-29"/>
<polygon fill="black" stroke="black" points="259.789,-29 249.789,-33.5001 254.789,-29 249.789,-29.0001 249.789,-29.0001 249.789,-29.0001 254.789,-29 249.789,-24.5001 259.789,-29 259.789,-29"/>
</g>
<!-- relu2 -->
<g id="node4" class="node"><title>relu2</title>
<polygon fill="#ffffb3" stroke="black" points="484,-58 390,-58 390,-0 484,-0 484,-58"/>
<text text-anchor="middle" x="437" y="-36" font-family="Times,serif" font-size="10.00">relu2</text>
<text text-anchor="middle" x="437" y="-26" font-family="Times,serif" font-size="10.00">Activation</text>
<text text-anchor="middle" x="437" y="-16" font-family="Times,serif" font-size="10.00">act&#45;type=relu</text>
</g>
<!-- relu2&#45;&gt;fc2 -->
<g id="edge3" class="edge"><title>relu2&#45;&gt;fc2</title>
<path fill="none" stroke="black" d="M379.558,-29C371.063,-29 362.388,-29 354.143,-29"/>
<polygon fill="black" stroke="black" points="389.789,-29 379.789,-33.5001 384.789,-29 379.789,-29.0001 379.789,-29.0001 379.789,-29.0001 384.789,-29 379.789,-24.5001 389.789,-29 389.789,-29"/>
</g>
<!-- fc3 -->
<g id="node5" class="node"><title>fc3</title>
<polygon fill="#fb8072" stroke="black" points="614,-58 520,-58 520,-0 614,-0 614,-58"/>
<text text-anchor="middle" x="567" y="-36" font-family="Times,serif" font-size="10.00">fc3</text>
<text text-anchor="middle" x="567" y="-26" font-family="Times,serif" font-size="10.00">FullyConnected</text>
<text text-anchor="middle" x="567" y="-16" font-family="Times,serif" font-size="10.00">num&#45;hidden=10</text>
</g>
<!-- fc3&#45;&gt;relu2 -->
<g id="edge4" class="edge"><title>fc3&#45;&gt;relu2</title>
<path fill="none" stroke="black" d="M509.558,-29C501.063,-29 492.388,-29 484.143,-29"/>
<polygon fill="black" stroke="black" points="519.789,-29 509.789,-33.5001 514.789,-29 509.789,-29.0001 509.789,-29.0001 509.789,-29.0001 514.789,-29 509.789,-24.5001 519.789,-29 519.789,-29"/>
</g>
<!-- softmax -->
<g id="node6" class="node"><title>softmax</title>
<polygon fill="#b3de69" stroke="black" points="744,-58 650,-58 650,-0 744,-0 744,-58"/>
<text text-anchor="middle" x="697" y="-31" font-family="Times,serif" font-size="10.00">softmax</text>
<text text-anchor="middle" x="697" y="-21" font-family="Times,serif" font-size="10.00">SoftmaxOutput</text>
</g>
<!-- softmax&#45;&gt;fc3 -->
<g id="edge5" class="edge"><title>softmax&#45;&gt;fc3</title>
<path fill="none" stroke="black" d="M639.558,-29C631.063,-29 622.388,-29 614.143,-29"/>
<polygon fill="black" stroke="black" points="649.789,-29 639.789,-33.5001 644.789,-29 639.789,-29.0001 639.789,-29.0001 639.789,-29.0001 644.789,-29 639.789,-24.5001 649.789,-29 649.789,-29"/>
</g>
</g>
</svg>
